HIERARCHY
ROOT Hips
{
	OFFSET 0.000000 0.000000 0.000000 
	CHANNELS 6 Xposition Yposition Zposition Yrotation Zrotation Xrotation 
	JOINT Lumbar
	{
		OFFSET 0.000000 0.000000 0.000000 
		CHANNELS 3 Zrotation Xrotation Yrotation
		JOINT Neck
		{
			OFFSET 0.000000 0.445665 0.000000 
			CHANNELS 3 Zrotation Xrotation Yrotation
			End Site
			{
				OFFSET 0.000000 0.227535 0.000000 
			}
		}
		JOINT RightShoulder
		{
			OFFSET 0.019635 0.377685 0.194865 
			CHANNELS 3 Zrotation Xrotation Yrotation
			JOINT RightElbow
			{
				OFFSET 0.000000 -0.243375 0.000000 
				CHANNELS 2 Zrotation Yrotation
				JOINT RightWrist
				{
					OFFSET 0.000000 -0.264825 0.000000 
					CHANNELS 2 Zrotation Xrotation
					End Site
					{
						OFFSET 0.006600 -0.176220 0.000990 
					}
				}
			}
		}
		JOINT LeftShoulder
		{
			OFFSET 0.019635 0.377685 -0.194865 
			CHANNELS 3 Zrotation Xrotation Yrotation
			JOINT LeftElbow
			{
				OFFSET 0.000000 -0.243375 0.000000 
				CHANNELS 2 Zrotation Yrotation
				JOINT LeftWrist
				{
					OFFSET 0.000000 -0.264825 0.000000 
					CHANNELS 2 Zrotation Xrotation
					End Site
					{
						OFFSET 0.006600 -0.176220 -0.000990 
					}
				}
			}
		}
	}
	JOINT RightHip
	{
		OFFSET 0.052140 -0.069960 0.075570 
		CHANNELS 3 Zrotation Xrotation Yrotation
		JOINT RightKnee
		{
			OFFSET 0.000000 -0.402270 0.000000 
			CHANNELS 1 Zrotation
			JOINT RightAnkle
			{
				OFFSET 0.000000 -0.404085 0.000000 
				CHANNELS 3 Zrotation Xrotation Yrotation
				End Site
				{
					OFFSET 0.204105 -0.089430 0.008415 
				}
			}
		}
	}
	JOINT LeftHip
	{
		OFFSET 0.052140 -0.069960 -0.075570 
		CHANNELS 3 Zrotation Xrotation Yrotation
		JOINT LeftKnee
		{
			OFFSET 0.000000 -0.402270 0.000000 
			CHANNELS 1 Zrotation
			JOINT LeftAnkle
			{
				OFFSET 0.000000 -0.404085 0.000000 
				CHANNELS 3 Zrotation Xrotation Yrotation
				End Site
				{
					OFFSET 0.204105 -0.089430 -0.008415 
				}
			}
		}
	}
}
MOTION
Frames: 30
Frame Time: 0.02
-0.33239 -0.04761 -0.55783 -364.55641 -14.61187 5.20452 41.49981 -0.64747 0.99491 -23.76183 1.74382 -2.11994 -33.89384 -1.87309 -30.5093 111.10457 82.83686 -0.83861 0.02023 -28.07567 6.50361 33.01747 103.26631 -87.65411 8.72351 0.94275 21.02268 -3.93331 -12.28153 -35.27261 -6.7678 -1.43005 -2.94517 43.26196 -6.49262 16.53889 -18.35538 -9.22683 1.92203 3.29656
-0.31986 -0.04559 -0.55962 -364.25573 -14.37958 5.15823 41.39786 -0.62667 1.03188 -23.03472 1.78479 -2.11994 -31.11842 -2.82824 -33.13182 107.10323 82.34316 -1.44806 0.08414 -25.69998 7.20296 35.89514 99.24919 -87.78376 8.32364 0.80959 21.36924 -4.48047 -12.03096 -37.4254 -7.11724 -1.30193 -2.89817 42.34168 -6.46429 17.55871 -18.86746 -8.98553 1.78703 3.22063
-0.3077 -0.04411 -0.56182 -363.95978 -13.99672 5.06743 41.14053 -0.5675 0.97215 -22.26893 1.82137 -2.11994 -28.01046 -3.84302 -35.82616 102.23975 81.6168 -2.35481 0.16752 -23.2546 7.88472 38.86083 94.52515 -87.76978 7.62339 0.64627 21.87694 -5.1175 -11.8135 -40.06368 -7.54351 -1.14191 -2.83811 41.24915 -6.37662 18.69473 -19.37802 -8.73487 1.6456 3.14135
-0.29545 -0.04242 -0.56384 -363.66972 -13.66525 5.00302 40.92899 -0.52432 0.95898 -21.52087 1.85212 -2.11994 -25.04991 -4.83879 -38.46738 97.72817 80.99293 -3.12016 0.24449 -20.85974 8.60781 41.74205 90.05684 -87.81388 7.06811 0.49923 22.3157 -5.73928 -11.59577 -42.49498 -7.9432 -0.99625 -2.78414 40.21869 -6.32474 19.74375 -19.88406 -8.49006 1.51202 3.06592
-0.28284 -0.04054 -0.56587 -363.34727 -13.40055 4.91394 40.81822 -0.48709 0.93648 -20.76863 1.9156 -2.11994 -22.08038 -5.80572 -41.21755 93.34902 80.38523 -3.91023 0.32102 -18.36791 9.20388 44.82859 85.82595 -87.89108 6.47905 0.34118 22.73597 -6.25878 -11.3161 -44.88588 -8.31309 -0.8484 -2.72836 39.24851 -6.23631 20.9437 -20.41312 -8.23591 1.3575 2.98047
-0.27109 -0.0392 -0.56796 -363.09071 -12.96594 4.86289 40.46562 -0.42755 0.9082 -20.0191 1.91162 -2.11994 -19.07006 -6.83937 -43.7465 88.52022 79.69171 -4.71687 0.39922 -16.07247 10.04569 47.50299 80.96909 -87.86655 5.89084 0.19921 23.23411 -7.00494 -11.1701 -47.45807 -8.75736 -0.70086 -2.6747 38.11814 -6.20755 21.85501 -20.89206 -8.00058 1.24463 2.91498
-0.2615 -0.03932 -0.57025 -363.04025 -12.06268 4.95552 39.44136 -0.32696 0.90704 -19.26446 1.70218 -2.11994 -15.90602 -8.10944 -45.67985 82.45136 78.76771 -5.53698 0.4781 -14.28503 11.68629 48.99827 74.2949 -87.5663 5.34628 0.10588 23.89388 -8.42377 -11.42426 -50.54871 -9.43638 -0.5336 -2.61746 36.54903 -6.38407 21.93145 -21.25049 -7.81226 1.25468 2.90772
-0.25279 -0.03995 -0.57254 -363.05092 -11.0008 5.08295 38.18717 -0.20367 0.89966 -18.51842 1.42859 -2.11994 -12.73793 -9.43167 -47.37912 76.00247 77.77368 -6.35684 0.55638 -12.7099 13.55279 50.07521 67.06768 -87.17303 4.81796 0.03036 24.62738 -10.05526 -11.80595 -53.77493 -10.17883 -0.37266 -2.56497 34.83272 -6.61804 21.7135 -21.55546 -7.64479 1.30584 2.92029
-0.24377 -0.04027 -0.57474 -363.01764 -10.03541 5.17636 37.06547 -0.08315 0.88259 -17.78285 1.19743 -2.11994 -9.65287 -10.6871 -49.16133 69.86554 76.84386 -7.15095 0.63303 -11.07187 15.23936 51.35558 60.26548 -86.8418 4.30305 -0.05132 25.3382 -11.54381 -12.10272 -56.854 -10.86002 -0.22801 -2.51887 33.20943 -6.80891 21.6362 -21.87331 -7.47286 1.33407 2.92229
-0.2344 -0.04093 -0.57735 -363.05446 -8.9611 5.34499 35.81919 0.00834 0.91555 -16.98434 0.91002 -2.11994 -6.20997 -12.12893 -51.04565 63.10495 75.76967 -8.06411 0.71874 -9.2857 17.25139 52.58908 52.69869 -86.42403 3.69127 -0.14232 26.01544 -13.22919 -12.51026 -60.3277 -11.67928 -0.00308 -2.43708 31.46884 -7.0695 21.53658 -22.23874 -7.27957 1.37978 2.9307
-0.22595 -0.041 -0.5791 -362.9576 -8.07869 5.36587 34.78099 0.16335 0.84339 -16.32057 0.72467 -2.11994 -3.51984 -13.19115 -52.66033 57.57116 74.98213 -8.72591 0.78492 -7.86409 18.63966 53.8122 46.61032 -86.16399 3.28735 -0.20913 26.76988 -14.55614 -12.72219 -62.9846 -12.22699 0.05489 -2.42982 29.94102 -7.19919 21.40893 -22.49309 -7.13564 1.39918 2.93059
-0.21986 -0.03935 -0.57851 -362.49483 -7.76015 4.97007 34.36473 0.50341 0.48938 -16.01775 0.83581 -2.11994 -2.87758 -13.21832 -53.58825 55.46481 75.00739 -8.68835 0.79899 -7.35776 18.24873 55.17148 44.67473 -86.38205 3.46855 -0.2149 27.7881 -14.82153 -12.31464 -63.52663 -11.9918 -0.36474 -2.63628 29.02895 -6.95485 21.30114 -22.44793 -7.1249 1.33381 2.90151
-0.21465 -0.0371 -0.57704 -361.89208 -7.64214 4.42496 34.16846 0.90338 0.02937 -15.85215 1.05178 -2.11994 -3.00031 -12.85725 -54.25174 54.61954 75.32348 -8.39766 0.79307 -7.218 17.22365 56.52278 44.2602 -86.75894 3.85663 -0.19663 28.86759 -14.72199 -11.71262 -63.20716 -11.484 -0.9484 -2.91567 28.33889 -6.57704 21.16999 -22.29399 -7.1628 1.24096 2.86332
-0.20902 -0.03513 -0.57593 -361.34136 -7.43596 3.9481 33.87781 1.26605 -0.38665 -15.62974 1.22084 -2.11994 -2.79586 -12.65567 -55.03631 53.23749 75.5054 -8.22452 0.79494 -6.93762 16.48865 57.83597 43.19755 -87.05104 4.14213 -0.1882 29.87354 -14.80222 -11.23362 -63.16557 -11.11216 -1.44597 -3.15611 27.55266 -6.25938 21.0324 -22.19362 -7.1772 1.16201 2.82971
-0.20353 -0.03315 -0.57498 -360.84135 -7.21062 3.46935 33.55452 1.67291 -0.78687 -15.38393 1.38584 -2.11994 -2.5062 -12.52447 -55.81152 51.6924 75.69496 -8.03972 0.80187 -6.55799 15.74935 59.30997 41.93966 -87.39361 4.46589 -0.18336 31.07612 -14.83165 -10.6212 -63.6084 -10.69175 -1.99478 -3.42231 26.73942 -5.94493 20.95665 -22.07367 -7.19823 1.07843 2.79488
-0.19794 -0.03104 -0.5735 -360.20209 -7.07617 2.9604 33.35557 2.00061 -1.24309 -15.21965 1.58344 -2.11994 -2.57381 -12.15761 -56.54321 50.78624 75.93637 -7.8206 0.79402 -6.46556 14.87078 60.45364 41.44861 -87.6693 4.75676 -0.16607 31.8814 -14.87681 -10.22833 -62.83632 -10.30678 -2.47288 -3.65076 26.03939 -5.59249 20.75034 -21.96969 -7.21668 0.9976 2.76025
-0.19182 -0.02874 -0.57081 -359.20866 -7.13362 2.38897 33.43841 2.10406 -1.84483 -15.24423 1.85975 -2.11994 -3.45885 -11.20184 -57.2479 51.38522 76.27057 -7.55439 0.74565 -7.10954 13.7155 60.67899 42.78105 -87.72839 4.92548 -0.11586 31.58497 -15.05759 -10.58136 -58.91889 -10.0871 -2.74097 -3.76919 25.57878 -5.15732 20.1904 -21.93381 -7.21649 0.92957 2.72752
-0.18556 -0.02633 -0.56761 -358.08047 -7.27806 1.79484 33.64138 2.12416 -2.49605 -15.34652 2.16311 -2.11994 -4.67372 -10.02848 -57.91366 52.57688 76.64387 -7.26467 0.68387 -8.0232 12.4494 60.57542 44.82221 -87.71405 5.05066 -0.0548 30.88432 -15.26437 -11.14602 -53.81216 -9.91202 -2.92812 -3.84517 25.22845 -4.68989 19.50094 -21.91848 -7.21188 0.86535 2.69537
-0.17937 -0.02398 -0.56463 -357.01603 -7.39033 1.22143 33.79563 2.17616 -3.11359 -15.41503 2.44474 -2.11994 -5.72583 -8.97588 -58.57984 53.46634 76.98547 -6.99548 0.63134 -8.78999 11.26425 60.63035 46.48898 -87.7291 5.18263 -0.00177 30.36147 -15.45729 -11.55054 -49.24488 -9.71577 -3.13484 -3.93228 24.84108 -4.24425 18.87173 -21.89578 -7.20889 0.80014 2.6634
-0.1732 -0.02156 -0.56168 -355.93561 -7.47934 0.59977 33.9327 2.25475 -3.78222 -15.48208 2.76895 -2.11994 -6.85903 -7.81637 -59.30995 54.53661 77.39412 -6.67731 0.56513 -9.6702 9.92904 60.6482 48.42435 -87.76582 5.37524 0.0649 29.86547 -15.64957 -12.2111 -44.63515 -9.51395 -3.41729 -4.05509 24.40721 -3.76521 18.23642 -21.86111 -7.2091 0.73079 2.62919
-0.16694 -0.01927 -0.55856 -354.859 -7.6337 0.07409 34.13112 2.25832 -4.35463 -15.56855 3.01062 -2.11994 -7.8916 -6.83424 -59.90063 55.3567 77.67097 -6.4571 0.52407 -10.3761 8.887 60.6634 49.95504 -87.73869 5.43034 0.10575 29.21705 -15.84995 -12.40027 -39.86375 -9.33776 -3.524 -4.09415 24.09218 -3.34816 17.58244 -21.85747 -7.20113 0.67142 2.59996
-0.16046 -0.01738 -0.55515 -353.82113 -7.95732 -0.17041 34.47014 2.06671 -4.64939 -15.69125 3.00793 -2.11994 -8.56177 -6.38574 -60.12111 55.31844 77.55274 -6.52979 0.55933 -10.50894 8.69591 60.76892 50.13475 -87.54575 5.09947 0.06964 28.24482 -16.10345 -11.15815 -34.75857 -9.22359 -3.13533 -3.8977 24.08996 -3.12503 16.918 -21.93695 -7.17006 0.63807 2.584
-0.15389 -0.01562 -0.55159 -352.79402 -8.34122 -0.31836 34.86561 1.8037 -4.84448 -15.82958 2.92251 -2.11994 -9.11546 -6.12695 -60.20274 55.00622 77.303 -6.70013 0.6198 -10.45953 8.80448 60.88011 49.88616 -87.2917 4.63385 0.0076 27.13414 -16.35936 -9.44979 -29.56891 -9.13466 -2.57715 -3.62068 24.20092 -2.96352 16.23805 -22.04711 -7.13096 0.61493 2.57315
-0.14735 -0.01377 -0.54808 -351.76494 -8.68941 -0.51717 35.23371 1.57871 -5.0853 -15.95927 2.88088 -2.11994 -9.72198 -5.78944 -60.3461 54.82739 77.1263 -6.81605 0.66647 -10.50915 8.76928 60.97739 49.86577 -87.06971 4.2399 -0.04073 26.08647 -16.59132 -8.00691 -24.53978 -9.03411 -2.11559 -3.3899 24.25044 -2.76444 15.55862 -22.14207 -7.0964 0.5876 2.56021
-0.14086 -0.01202 -0.54461 -350.71596 -9.07427 -0.68898 35.61318 1.32761 -5.32841 -16.09919 2.81423 -2.11994 -10.34373 -5.41248 -60.49461 54.63101 76.89551 -6.97307 0.72254 -10.50192 8.76061 61.11059 49.73035 -86.82708 3.80034 -0.09679 25.02035 -16.91938 -6.34512 -18.95479 -8.9355 -1.56944 -3.11749 24.3434 -2.6036 14.90045 -22.24273 -7.05807 0.55832 2.54622
-0.13425 -0.01012 -0.54103 -349.71624 -9.39795 -0.89176 35.98105 1.11464 -5.53948 -16.21932 2.77956 -2.11994 -10.8982 -5.16557 -60.59883 54.40016 76.74512 -7.0684 0.76523 -10.56385 8.77093 61.17516 49.72219 -86.61393 3.42452 -0.14309 23.97007 -17.0489 -5.02572 -14.52081 -8.8384 -1.15924 -2.91265 24.3748 -2.37937 14.19825 -22.33888 -7.02558 0.5357 2.53571
-0.12724 -0.00775 -0.53721 -348.82093 -9.51906 -1.22078 36.29948 1.02787 -5.71181 -16.29059 2.85375 -2.11994 -11.32281 -5.23399 -60.62438 54.11984 76.85237 -6.96661 0.76467 -10.88021 8.74859 61.04523 50.17421 -86.49691 3.25601 -0.15585 22.95562 -16.61826 -4.76499 -13.31449 -8.73871 -1.17493 -2.91894 24.17696 -1.95531 13.35952 -22.4123 -7.01257 0.5271 2.53297
-0.12014 -0.00525 -0.53326 -347.98079 -9.57918 -1.58102 36.60398 0.98171 -5.8507 -16.33935 2.96258 -2.11994 -11.6771 -5.42751 -60.60814 53.81513 77.04418 -6.80002 0.74991 -11.26766 8.73793 60.84809 50.76421 -86.41216 3.15689 -0.15794 21.97132 -15.98973 -4.86311 -13.27072 -8.63963 -1.33209 -2.99536 23.91811 -1.46737 12.48105 -22.48051 -7.00551 0.52516 2.53366
-0.11313 -0.00283 -0.52933 -347.13531 -9.6797 -1.91558 36.91703 0.91508 -5.98756 -16.39152 3.05542 -2.11994 -12.04354 -5.56302 -60.6055 53.53244 77.19474 -6.66519 0.74177 -11.60858 8.73019 60.68605 51.28519 -86.31301 3.02715 -0.16519 21.00318 -15.45918 -4.79764 -12.68127 -8.54039 -1.41879 -3.03664 23.70789 -1.01517 11.63393 -22.55286 -6.99482 0.5214 2.53318
-0.10588 -0.0003 -0.52558 -346.20743 -9.73053 -2.29514 37.22421 0.85436 -6.19224 -16.47245 3.14719 -2.11994 -12.48879 -5.70938 -60.62257 53.19446 77.35264 -6.52412 0.73367 -12.00282 8.69779 60.5058 51.82001 -86.21018 2.88842 -0.17226 19.90554 -14.89486 -4.72202 -12.15902 -8.44139 -1.52508 -3.08866 23.41532 -0.53657 10.73062 -22.61897 -6.98764 0.51298 2.53126
